# xmcd CD database file
#
# Track frame offsets:
#	150
#	19628
#	42263
#	46775
#	84878
#	115030
#	139858
#	166708
#	170063
#	215370
#
# Disc length: 3359 seconds
#
# Revision: 0
# Processed by: cddbd v1.5.1PL0 Copyright (c) Steve Scherf et al.
# Submitted via: CDex 1.51
#
DISCID=740d1d0a
DTITLE=EXIT BROOKLYN - dRUM and LOVE
DYEAR=2001
DGENRE=Jazz
TTITLE0=by your light
TTITLE1=what is love (maybe i am crazy)
TTITLE2=exit from brooklyn (3pm,jay street)
TTITLE3=vision of you
TTITLE4=no other love
TTITLE5=whisper in the wind
TTITLE6=not even slow (jazz tronix)
TTITLE7=stay in tune/sunday school crew
TTITLE8=let love grow (love is the air)
TTITLE9=cosmic carnival (placeof sun)
EXTD=YEAR: 2001
EXTT0=
EXTT1=
EXTT2=
EXTT3=
EXTT4=
EXTT5=
EXTT6=
EXTT7=
EXTT8=
EXTT9=
PLAYORDER=
